<?xml version="1.0" encoding="UTF-8" standalone="no"?><!DOCTYPE svg PUBLIC "-//W3C//DTD SVG 1.1//EN" "http://www.w3.org/Graphics/SVG/1.1/DTD/svg11.dtd"><svg width="100%" height="100%" viewBox="0 0 1211 362" version="1.1" xmlns="http://www.w3.org/2000/svg" xmlns:xlink="http://www.w3.org/1999/xlink" xml:space="preserve" xmlns:serif="http://www.serif.com/" style="fill-rule:evenodd;clip-rule:evenodd;stroke-linejoin:round;stroke-miterlimit:1.41421;"><g id="Banner"><rect x="0" y="104.742" width="1210.67" height="152.428" style="fill:#b5965b;"/><path d="M484.395,146.508c-3.791,4.289 -7.419,8.666 -10.886,13.129c-3.466,4.464 -6.509,8.866 -9.127,13.205c-2.618,4.339 -4.713,8.516 -6.284,12.531c-1.571,4.015 -2.357,7.743 -2.357,11.185c0,1.296 0.225,2.219 0.673,2.768c0.449,0.548 1.048,0.823 1.796,0.823c1.446,0 3.342,-0.798 5.686,-2.394c2.344,-1.596 4.763,-3.666 7.257,-6.21c0.798,-0.848 1.633,-1.758 2.506,-2.731c0.873,-0.972 1.721,-1.945 2.543,-2.917c0.823,-0.973 1.572,-1.883 2.245,-2.731c0.673,-0.848 1.234,-1.546 1.683,-2.095l0.599,0.374c-1.147,1.497 -2.457,3.18 -3.928,5.05c-1.471,1.871 -3.404,4.003 -5.798,6.397c-2.544,2.543 -5.075,4.663 -7.594,6.359c-2.518,1.696 -5.049,2.543 -7.593,2.543c-1.247,0 -2.282,-0.199 -3.105,-0.598c-0.823,-0.399 -1.471,-0.935 -1.945,-1.609c-0.474,-0.673 -0.81,-1.433 -1.01,-2.281c-0.199,-0.848 -0.299,-1.746 -0.299,-2.694c0,-3.042 0.499,-5.972 1.496,-8.79c0.998,-2.818 2.17,-5.499 3.516,-8.042l-10.473,0c-2.045,2.394 -4.327,4.962 -6.846,7.705c-2.519,2.743 -5.224,5.275 -8.117,7.594c-2.893,2.319 -5.935,4.252 -9.127,5.798c-3.192,1.546 -6.509,2.319 -9.95,2.319c-1.497,0 -2.931,-0.175 -4.302,-0.524c-1.372,-0.349 -2.606,-0.885 -3.703,-1.608c-1.098,-0.723 -1.97,-1.634 -2.619,-2.731c-0.648,-1.097 -0.972,-2.419 -0.972,-3.965c0,-1.446 0.399,-2.768 1.197,-3.965c0.798,-1.197 1.995,-1.796 3.591,-1.796c0.997,0 1.845,0.312 2.543,0.936c0.699,0.623 1.048,1.384 1.048,2.281c0,1.347 -0.399,2.32 -1.197,2.918c-0.798,0.599 -1.846,0.898 -3.142,0.898c0,1.047 0.249,1.995 0.748,2.843c0.498,0.848 1.122,1.546 1.87,2.095c0.748,0.548 1.596,0.972 2.544,1.271c0.947,0.3 1.87,0.449 2.768,0.449c2.244,0 4.451,-0.386 6.621,-1.159c2.169,-0.773 4.301,-1.808 6.396,-3.105c2.095,-1.297 4.115,-2.793 6.06,-4.489c1.945,-1.696 3.815,-3.441 5.611,-5.237c1.795,-1.795 3.491,-3.603 5.087,-5.424c1.596,-1.82 3.068,-3.479 4.414,-4.975c2.743,-3.092 5.599,-6.147 8.566,-9.164c2.968,-3.018 6.073,-5.861 9.315,-8.529c3.241,-2.668 6.645,-5.062 10.211,-7.182c3.567,-2.12 7.32,-3.778 11.26,-4.975l0.524,0.449Zm-29.477,30.374c2.793,-4.938 5.96,-9.626 9.501,-14.065c3.542,-4.439 7.407,-8.604 11.596,-12.494l-0.149,-0.149c-5.885,3.092 -11.309,6.932 -16.272,11.521c-4.963,4.588 -9.888,9.651 -14.776,15.187l10.1,0Z" style="fill:#fff;fill-rule:nonzero;"/><path d="M499.806,187.131c0.948,-1.197 2.07,-2.581 3.367,-4.152c1.296,-1.571 2.705,-3.055 4.226,-4.451c1.522,-1.397 3.118,-2.581 4.789,-3.554c1.67,-0.973 3.329,-1.459 4.975,-1.459c1.596,0 2.88,0.499 3.852,1.496c0.973,0.998 1.459,2.145 1.459,3.442c0,1.696 -0.548,3.429 -1.646,5.199c-1.097,1.771 -2.319,3.529 -3.665,5.275c-1.347,1.745 -2.569,3.441 -3.666,5.087c-1.098,1.646 -1.646,3.142 -1.646,4.489c0,0.548 0.125,1.01 0.374,1.384c0.249,0.374 0.648,0.561 1.197,0.561c2.045,0 5.386,-2.319 10.025,-6.958c1.895,-1.895 3.753,-3.903 5.573,-6.022c1.821,-2.12 3.404,-4.053 4.751,-5.798l0.599,0.299c-0.599,0.748 -1.285,1.596 -2.058,2.544c-0.773,0.947 -1.608,1.957 -2.506,3.03c-0.898,1.072 -1.858,2.182 -2.88,3.329c-1.023,1.147 -2.058,2.244 -3.105,3.292c-1.397,1.396 -2.668,2.581 -3.816,3.553c-1.147,0.973 -2.207,1.758 -3.179,2.357c-0.973,0.598 -1.895,1.035 -2.768,1.309c-0.873,0.274 -1.758,0.411 -2.656,0.411c-1.746,0 -3.105,-0.486 -4.077,-1.458c-0.973,-0.973 -1.459,-2.207 -1.459,-3.704c0,-1.596 0.548,-3.316 1.646,-5.162c1.097,-1.845 2.319,-3.641 3.666,-5.386c1.346,-1.746 2.568,-3.379 3.665,-4.9c1.098,-1.522 1.646,-2.756 1.646,-3.704c0,-0.698 -0.199,-1.234 -0.598,-1.608c-0.399,-0.374 -0.873,-0.561 -1.422,-0.561c-1.047,0 -2.257,0.486 -3.628,1.459c-1.372,0.972 -2.806,2.231 -4.302,3.778c-1.496,1.546 -2.98,3.266 -4.451,5.162c-1.472,1.895 -2.868,3.79 -4.19,5.685c-1.321,1.896 -2.494,3.666 -3.516,5.312c-1.022,1.646 -1.833,2.993 -2.431,4.04l-7.931,0.299c1.696,-2.693 3.355,-5.249 4.975,-7.668c1.621,-2.419 3.068,-4.638 4.34,-6.658c1.271,-2.02 2.294,-3.803 3.067,-5.349c0.773,-1.547 1.16,-2.769 1.16,-3.666c0,-0.599 -0.175,-1.147 -0.524,-1.646c-0.349,-0.499 -0.898,-0.748 -1.646,-0.748c-1.047,0 -2.257,0.486 -3.628,1.459c-1.372,0.972 -2.806,2.231 -4.302,3.778c-1.496,1.546 -3.005,3.266 -4.526,5.162c-1.522,1.895 -2.955,3.79 -4.302,5.685c-1.347,1.896 -2.544,3.666 -3.591,5.312c-1.047,1.646 -1.87,2.993 -2.469,4.04l-7.556,0.299c2.743,-4.389 5.461,-8.765 8.155,-13.129c2.693,-4.364 5.336,-8.816 7.93,-13.354l8.753,-0.449l-9.95,13.616l0.149,0.149c1.048,-1.197 2.232,-2.618 3.554,-4.264c1.322,-1.646 2.756,-3.217 4.302,-4.713c1.546,-1.497 3.204,-2.768 4.975,-3.816c1.77,-1.047 3.653,-1.571 5.648,-1.571c1.397,0 2.581,0.374 3.554,1.122c0.972,0.749 1.459,1.871 1.459,3.367c0,0.698 -0.125,1.446 -0.374,2.244c-0.25,0.798 -0.562,1.584 -0.936,2.357c-0.374,0.773 -0.798,1.546 -1.271,2.319c-0.474,0.773 -0.911,1.459 -1.31,2.058l0.15,0.149Z" style="fill:#fff;fill-rule:nonzero;"/><path d="M559.881,148.977c-3.591,5.486 -6.821,10.361 -9.689,14.625c-2.867,4.265 -5.399,8.005 -7.593,11.222c-2.195,3.217 -4.065,6.01 -5.611,8.379c-1.546,2.37 -2.805,4.439 -3.778,6.21c-0.973,1.771 -1.683,3.304 -2.132,4.601c-0.449,1.297 -0.674,2.494 -0.674,3.591c0,0.997 0.275,1.87 0.823,2.618c0.549,0.749 1.347,1.123 2.394,1.123c1.347,0 2.681,-0.399 4.003,-1.197c1.322,-0.798 2.581,-1.833 3.778,-3.105c1.197,-1.272 2.307,-2.681 3.329,-4.227c1.023,-1.546 1.908,-3.08 2.656,-4.601c0.748,-1.521 1.334,-2.943 1.758,-4.264c0.424,-1.322 0.636,-2.357 0.636,-3.105c0,-0.25 -0.037,-0.461 -0.112,-0.636c-0.075,-0.175 -0.162,-0.374 -0.262,-0.599c-0.1,-0.224 -0.187,-0.511 -0.262,-0.86c-0.075,-0.349 -0.112,-0.823 -0.112,-1.421c0,-0.948 0.312,-1.821 0.935,-2.619c0.623,-0.798 1.434,-1.197 2.431,-1.197c0.848,0 1.547,0.187 2.095,0.561c0.549,0.374 0.985,0.861 1.309,1.459c0.325,0.599 0.549,1.259 0.674,1.983c0.124,0.723 0.187,1.434 0.187,2.132c0,1.097 -0.15,2.294 -0.449,3.591c0.598,0.598 1.421,1.159 2.469,1.683c1.047,0.524 2.144,0.786 3.292,0.786c1.695,0 3.204,-0.399 4.526,-1.197c1.321,-0.798 2.481,-1.846 3.478,-3.142l0.524,0.448c-0.997,1.447 -2.257,2.606 -3.778,3.479c-1.521,0.873 -3.105,1.309 -4.75,1.309c-1.197,0 -2.282,-0.224 -3.255,-0.673c-0.972,-0.449 -1.883,-1.022 -2.731,-1.721c-0.748,2.594 -1.87,4.988 -3.366,7.182c-1.496,2.195 -3.254,4.09 -5.274,5.686c-2.02,1.596 -4.252,2.856 -6.696,3.778c-2.444,0.923 -4.988,1.384 -7.631,1.384c-2.793,0 -4.875,-0.723 -6.247,-2.169c-1.372,-1.447 -2.057,-3.392 -2.057,-5.836c0,-0.798 0.137,-1.67 0.411,-2.618c0.274,-0.948 0.773,-2.12 1.496,-3.516c0.724,-1.397 1.709,-3.13 2.956,-5.2c1.246,-2.07 2.855,-4.626 4.825,-7.668c1.97,-3.043 4.352,-6.683 7.145,-10.923c2.793,-4.239 6.084,-9.227 9.875,-14.962l8.454,-0.374Z" style="fill:#fff;fill-rule:nonzero;"/><path d="M591.377,175.161l7.781,-0.449c-0.449,0.898 -1.098,1.983 -1.946,3.255c-0.847,1.271 -1.77,2.643 -2.768,4.114c-0.997,1.472 -2.007,2.993 -3.03,4.564c-1.022,1.571 -1.957,3.092 -2.805,4.563c-0.848,1.472 -1.534,2.843 -2.057,4.115c-0.524,1.272 -0.786,2.357 -0.786,3.255c0,1.246 0.623,1.87 1.87,1.87c1.197,0 2.818,-0.698 4.863,-2.095c2.045,-1.396 4.19,-3.242 6.434,-5.536c0.948,-0.948 1.908,-1.97 2.88,-3.067c0.973,-1.098 1.908,-2.182 2.806,-3.255c0.898,-1.072 1.721,-2.07 2.469,-2.992c0.748,-0.923 1.346,-1.684 1.795,-2.282l0.524,0.299c-1.297,1.746 -2.793,3.678 -4.489,5.798c-1.696,2.12 -3.741,4.377 -6.135,6.771c-2.394,2.394 -4.75,4.351 -7.069,5.873c-2.32,1.521 -4.626,2.281 -6.921,2.281c-1.596,0 -2.83,-0.411 -3.703,-1.234c-0.873,-0.823 -1.309,-1.833 -1.309,-3.03c0,-0.399 0.025,-0.773 0.075,-1.122c0.05,-0.349 0.124,-0.624 0.224,-0.823l-0.149,0c-1.547,1.746 -3.292,3.217 -5.237,4.414c-1.945,1.197 -4.04,1.795 -6.285,1.795c-1.197,0 -2.219,-0.224 -3.067,-0.673c-0.848,-0.449 -1.534,-1.06 -2.057,-1.833c-0.524,-0.773 -0.91,-1.646 -1.16,-2.618c-0.249,-0.973 -0.374,-1.983 -0.374,-3.03c0,-2.444 0.673,-4.888 2.02,-7.332c1.347,-2.444 3.042,-4.651 5.087,-6.621c2.045,-1.97 4.327,-3.566 6.846,-4.788c2.518,-1.222 4.925,-1.833 7.219,-1.833c1.746,0 3.117,0.374 4.115,1.122c0.997,0.749 1.82,1.921 2.469,3.517l1.87,-2.993Zm-22.444,19.152c0,1.447 0.237,2.706 0.711,3.778c0.474,1.073 1.484,1.609 3.03,1.609c1.047,-0.05 2.144,-0.487 3.292,-1.31c1.147,-0.822 2.256,-1.857 3.329,-3.104c1.072,-1.247 2.094,-2.631 3.067,-4.152c0.973,-1.522 1.82,-3.055 2.544,-4.601c0.723,-1.547 1.296,-3.005 1.72,-4.377c0.424,-1.371 0.636,-2.531 0.636,-3.479c0,-1.346 -0.249,-2.394 -0.748,-3.142c-0.499,-0.748 -1.471,-1.122 -2.918,-1.122c-1.147,0 -2.306,0.349 -3.478,1.047c-1.172,0.699 -2.295,1.621 -3.367,2.768c-1.072,1.148 -2.095,2.432 -3.067,3.853c-0.973,1.422 -1.808,2.881 -2.506,4.377c-0.699,1.496 -1.247,2.93 -1.646,4.302c-0.399,1.371 -0.599,2.556 -0.599,3.553Z" style="fill:#fff;fill-rule:nonzero;"/><path d="M612.923,200.822c2.544,-0.549 4.9,-1.484 7.07,-2.806c2.17,-1.321 4.202,-2.867 6.097,-4.638c1.895,-1.771 3.678,-3.691 5.349,-5.761c1.671,-2.069 3.305,-4.152 4.901,-6.246l0.598,0.448c-1.995,2.594 -3.99,5.125 -5.985,7.594c-1.995,2.469 -4.177,4.651 -6.546,6.546c-2.369,1.895 -4.963,3.417 -7.781,4.564c-2.818,1.147 -6.047,1.72 -9.688,1.72c-1.297,0 -2.581,-0.137 -3.853,-0.411c-1.272,-0.274 -2.419,-0.723 -3.441,-1.347c-1.023,-0.623 -1.846,-1.446 -2.469,-2.469c-0.623,-1.022 -0.935,-2.281 -0.935,-3.778c0,-0.798 0.112,-1.596 0.336,-2.394c0.225,-0.798 0.562,-1.521 1.01,-2.169c0.449,-0.649 1.01,-1.185 1.684,-1.609c0.673,-0.424 1.459,-0.636 2.356,-0.636c1.147,0 2.033,0.325 2.656,0.973c0.624,0.648 0.935,1.396 0.935,2.244c0,1.048 -0.299,1.846 -0.897,2.394c-0.599,0.549 -1.297,0.823 -2.095,0.823c-0.649,0 -1.197,-0.124 -1.646,-0.374c-0.249,0.449 -0.461,0.935 -0.636,1.459c-0.174,0.524 -0.262,1.06 -0.262,1.609c0,1.396 0.536,2.543 1.609,3.441c1.072,0.898 2.331,1.347 3.778,1.347c0.898,0 1.808,-0.15 2.73,-0.449c0.923,-0.3 1.746,-0.736 2.469,-1.31c0.723,-0.573 1.309,-1.259 1.758,-2.057c0.449,-0.798 0.674,-1.671 0.674,-2.618c0,-1.297 -0.312,-2.482 -0.935,-3.554c-0.624,-1.072 -1.31,-2.107 -2.058,-3.105c-0.748,-0.997 -1.434,-2.007 -2.057,-3.03c-0.624,-1.022 -0.935,-2.107 -0.935,-3.254c0,-1.396 0.324,-2.618 0.972,-3.666c0.649,-1.047 1.496,-1.932 2.544,-2.656c1.047,-0.723 2.219,-1.259 3.516,-1.608c1.297,-0.349 2.619,-0.524 3.965,-0.524c2.394,0 4.402,0.511 6.023,1.534c1.621,1.022 2.431,2.481 2.431,4.376c0,1.447 -0.474,2.631 -1.421,3.554c-0.948,0.923 -2.145,1.384 -3.591,1.384c-0.449,0 -0.861,-0.037 -1.235,-0.112c-0.374,-0.075 -0.686,-0.162 -0.935,-0.262c0.549,-0.998 0.935,-1.983 1.16,-2.955c0.224,-0.973 0.336,-1.933 0.336,-2.88c0,-0.998 -0.287,-1.871 -0.86,-2.619c-0.574,-0.748 -1.434,-1.122 -2.581,-1.122c-1.397,0 -2.469,0.436 -3.217,1.309c-0.748,0.873 -1.122,1.958 -1.122,3.255c0,1.396 0.311,2.63 0.935,3.703c0.623,1.072 1.309,2.107 2.057,3.105c0.748,0.997 1.434,2.044 2.058,3.142c0.623,1.097 0.935,2.394 0.935,3.89c0,0.948 -0.162,1.87 -0.487,2.768c-0.324,0.898 -0.76,1.696 -1.309,2.394c-0.548,0.698 -1.159,1.284 -1.833,1.758c-0.673,0.474 -1.384,0.786 -2.132,0.935l0,0.15Z" style="fill:#fff;fill-rule:nonzero;"/><path d="M640.604,200.822c2.544,-0.549 4.9,-1.484 7.07,-2.806c2.169,-1.321 4.202,-2.867 6.097,-4.638c1.895,-1.771 3.678,-3.691 5.349,-5.761c1.671,-2.069 3.304,-4.152 4.9,-6.246l0.599,0.448c-1.995,2.594 -3.99,5.125 -5.985,7.594c-1.995,2.469 -4.177,4.651 -6.546,6.546c-2.369,1.895 -4.963,3.417 -7.781,4.564c-2.818,1.147 -6.047,1.72 -9.688,1.72c-1.297,0 -2.581,-0.137 -3.853,-0.411c-1.272,-0.274 -2.419,-0.723 -3.441,-1.347c-1.023,-0.623 -1.846,-1.446 -2.469,-2.469c-0.624,-1.022 -0.935,-2.281 -0.935,-3.778c0,-0.798 0.112,-1.596 0.336,-2.394c0.225,-0.798 0.561,-1.521 1.01,-2.169c0.449,-0.649 1.01,-1.185 1.684,-1.609c0.673,-0.424 1.458,-0.636 2.356,-0.636c1.147,0 2.033,0.325 2.656,0.973c0.623,0.648 0.935,1.396 0.935,2.244c0,1.048 -0.299,1.846 -0.898,2.394c-0.598,0.549 -1.296,0.823 -2.094,0.823c-0.649,0 -1.197,-0.124 -1.646,-0.374c-0.25,0.449 -0.462,0.935 -0.636,1.459c-0.175,0.524 -0.262,1.06 -0.262,1.609c0,1.396 0.536,2.543 1.608,3.441c1.073,0.898 2.332,1.347 3.779,1.347c0.897,0 1.808,-0.15 2.73,-0.449c0.923,-0.3 1.746,-0.736 2.469,-1.31c0.723,-0.573 1.309,-1.259 1.758,-2.057c0.449,-0.798 0.673,-1.671 0.673,-2.618c0,-1.297 -0.311,-2.482 -0.935,-3.554c-0.623,-1.072 -1.309,-2.107 -2.057,-3.105c-0.748,-0.997 -1.434,-2.007 -2.057,-3.03c-0.624,-1.022 -0.936,-2.107 -0.936,-3.254c0,-1.396 0.325,-2.618 0.973,-3.666c0.648,-1.047 1.496,-1.932 2.544,-2.656c1.047,-0.723 2.219,-1.259 3.516,-1.608c1.297,-0.349 2.618,-0.524 3.965,-0.524c2.394,0 4.401,0.511 6.022,1.534c1.621,1.022 2.432,2.481 2.432,4.376c0,1.447 -0.474,2.631 -1.422,3.554c-0.947,0.923 -2.144,1.384 -3.591,1.384c-0.449,0 -0.86,-0.037 -1.234,-0.112c-0.374,-0.075 -0.686,-0.162 -0.935,-0.262c0.548,-0.998 0.935,-1.983 1.159,-2.955c0.225,-0.973 0.337,-1.933 0.337,-2.88c0,-0.998 -0.287,-1.871 -0.86,-2.619c-0.574,-0.748 -1.434,-1.122 -2.581,-1.122c-1.397,0 -2.469,0.436 -3.217,1.309c-0.748,0.873 -1.123,1.958 -1.123,3.255c0,1.396 0.312,2.63 0.936,3.703c0.623,1.072 1.309,2.107 2.057,3.105c0.748,0.997 1.434,2.044 2.057,3.142c0.624,1.097 0.935,2.394 0.935,3.89c0,0.948 -0.162,1.87 -0.486,2.768c-0.324,0.898 -0.76,1.696 -1.309,2.394c-0.549,0.698 -1.16,1.284 -1.833,1.758c-0.673,0.474 -1.384,0.786 -2.132,0.935l0,0.15Z" style="fill:#fff;fill-rule:nonzero;"/><path d="M685.566,175.161l7.781,-0.449c-0.449,0.898 -1.097,1.983 -1.945,3.255c-0.848,1.271 -1.771,2.643 -2.768,4.114c-0.998,1.472 -2.008,2.993 -3.03,4.564c-1.023,1.571 -1.958,3.092 -2.806,4.563c-0.847,1.472 -1.533,2.843 -2.057,4.115c-0.524,1.272 -0.785,2.357 -0.785,3.255c0,1.246 0.623,1.87 1.87,1.87c1.197,0 2.818,-0.698 4.863,-2.095c2.045,-1.396 4.189,-3.242 6.434,-5.536c0.947,-0.948 1.907,-1.97 2.88,-3.067c0.972,-1.098 1.908,-2.182 2.805,-3.255c0.898,-1.072 1.721,-2.07 2.469,-2.992c0.748,-0.923 1.347,-1.684 1.796,-2.282l0.523,0.299c-1.296,1.746 -2.793,3.678 -4.488,5.798c-1.696,2.12 -3.741,4.377 -6.135,6.771c-2.394,2.394 -4.751,4.351 -7.07,5.873c-2.319,1.521 -4.626,2.281 -6.92,2.281c-1.596,0 -2.83,-0.411 -3.703,-1.234c-0.873,-0.823 -1.31,-1.833 -1.31,-3.03c0,-0.399 0.025,-0.773 0.075,-1.122c0.05,-0.349 0.125,-0.624 0.225,-0.823l-0.15,0c-1.546,1.746 -3.292,3.217 -5.237,4.414c-1.945,1.197 -4.04,1.795 -6.284,1.795c-1.197,0 -2.22,-0.224 -3.067,-0.673c-0.848,-0.449 -1.534,-1.06 -2.058,-1.833c-0.523,-0.773 -0.91,-1.646 -1.159,-2.618c-0.25,-0.973 -0.374,-1.983 -0.374,-3.03c0,-2.444 0.673,-4.888 2.019,-7.332c1.347,-2.444 3.043,-4.651 5.088,-6.621c2.045,-1.97 4.326,-3.566 6.845,-4.788c2.519,-1.222 4.925,-1.833 7.22,-1.833c1.745,0 3.117,0.374 4.114,1.122c0.998,0.749 1.821,1.921 2.469,3.517l1.87,-2.993Zm-22.443,19.152c0,1.447 0.236,2.706 0.71,3.778c0.474,1.073 1.484,1.609 3.03,1.609c1.048,-0.05 2.145,-0.487 3.292,-1.31c1.147,-0.822 2.257,-1.857 3.329,-3.104c1.073,-1.247 2.095,-2.631 3.068,-4.152c0.972,-1.522 1.82,-3.055 2.543,-4.601c0.723,-1.547 1.297,-3.005 1.721,-4.377c0.424,-1.371 0.636,-2.531 0.636,-3.479c0,-1.346 -0.25,-2.394 -0.748,-3.142c-0.499,-0.748 -1.472,-1.122 -2.918,-1.122c-1.147,0 -2.307,0.349 -3.479,1.047c-1.172,0.699 -2.294,1.621 -3.366,2.768c-1.073,1.148 -2.095,2.432 -3.068,3.853c-0.972,1.422 -1.808,2.881 -2.506,4.377c-0.698,1.496 -1.247,2.93 -1.646,4.302c-0.399,1.371 -0.598,2.556 -0.598,3.553Z" style="fill:#fff;fill-rule:nonzero;"/><path d="M740.404,149.425l8.379,-0.448c-1.645,2.693 -3.528,5.673 -5.648,8.94c-2.12,3.267 -4.289,6.596 -6.509,9.987c-2.219,3.392 -4.401,6.746 -6.546,10.063c-2.144,3.316 -4.052,6.384 -5.723,9.202c-1.671,2.817 -3.017,5.274 -4.04,7.369c-1.022,2.094 -1.534,3.616 -1.534,4.563c0,0.549 0.125,0.985 0.374,1.309c0.25,0.325 0.649,0.487 1.197,0.487c1.048,0 2.482,-0.524 4.302,-1.571c1.821,-1.048 3.853,-2.743 6.097,-5.088c1.846,-1.895 3.616,-3.853 5.312,-5.872c1.696,-2.02 3.541,-4.352 5.536,-6.995l0.748,0.374c-0.548,0.748 -1.209,1.621 -1.982,2.618c-0.773,0.998 -1.609,2.045 -2.506,3.142c-0.898,1.097 -1.833,2.207 -2.806,3.329c-0.972,1.123 -1.932,2.182 -2.88,3.18c-2.394,2.494 -4.688,4.489 -6.883,5.985c-2.194,1.496 -4.539,2.244 -7.032,2.244c-1.147,0 -2.083,-0.187 -2.806,-0.561c-0.723,-0.374 -1.297,-0.86 -1.72,-1.459c-0.424,-0.598 -0.686,-1.246 -0.786,-1.945c-0.1,-0.698 -0.075,-1.371 0.075,-2.02l-0.15,-0.149c-1.546,1.596 -3.242,2.942 -5.087,4.04c-1.845,1.097 -3.965,1.645 -6.359,1.645c-1.197,0 -2.207,-0.212 -3.03,-0.635c-0.823,-0.424 -1.496,-0.998 -2.02,-1.721c-0.524,-0.723 -0.898,-1.546 -1.122,-2.469c-0.225,-0.923 -0.337,-1.883 -0.337,-2.88c0,-2.494 0.648,-4.975 1.945,-7.444c1.297,-2.469 2.968,-4.676 5.013,-6.621c2.045,-1.945 4.314,-3.516 6.808,-4.713c2.493,-1.197 4.962,-1.796 7.406,-1.796c3.342,0 5.586,1.596 6.733,4.788l17.581,-28.878Zm-34.638,49.826c1.596,0 3.254,-0.761 4.975,-2.282c1.721,-1.521 3.292,-3.367 4.713,-5.536c1.422,-2.17 2.581,-4.427 3.479,-6.771c0.898,-2.344 1.347,-4.364 1.347,-6.06c0,-1.446 -0.374,-2.506 -1.123,-3.179c-0.748,-0.673 -1.695,-1.01 -2.842,-1.01c-1.547,0 -3.155,0.711 -4.826,2.132c-1.671,1.422 -3.204,3.155 -4.601,5.2c-1.396,2.044 -2.543,4.239 -3.441,6.583c-0.898,2.344 -1.347,4.439 -1.347,6.284c0,1.197 0.274,2.27 0.823,3.217c0.549,0.948 1.496,1.422 2.843,1.422Z" style="fill:#fff;fill-rule:nonzero;"/><path d="M778.409,181.67c-0.997,1.297 -2.182,2.469 -3.553,3.516c-1.372,1.047 -2.881,1.571 -4.526,1.571c-1.148,0 -2.145,-0.249 -2.993,-0.748c-0.848,-0.499 -1.621,-1.197 -2.319,-2.095c-0.599,2.494 -1.584,4.851 -2.955,7.07c-1.372,2.219 -3.03,4.165 -4.975,5.835c-1.946,1.671 -4.115,2.993 -6.509,3.965c-2.394,0.973 -4.888,1.459 -7.481,1.459c-2.744,0 -4.938,-0.785 -6.584,-2.356c-1.646,-1.571 -2.469,-3.728 -2.469,-6.472c0,-2.643 0.674,-5.174 2.02,-7.593c1.347,-2.419 3.092,-4.539 5.237,-6.359c2.145,-1.821 4.514,-3.267 7.107,-4.339c2.594,-1.073 5.137,-1.609 7.631,-1.609c2.694,0 4.813,0.723 6.359,2.17c1.546,1.446 2.494,3.192 2.843,5.237c0.25,1.496 0.811,2.693 1.684,3.591c0.872,0.897 2.007,1.346 3.404,1.346c1.346,0 2.618,-0.399 3.815,-1.197c1.197,-0.798 2.469,-1.995 3.815,-3.591l0.449,0.599Zm-34.788,19.676c1.247,0 2.494,-0.424 3.741,-1.272c1.247,-0.848 2.444,-1.945 3.591,-3.292c1.147,-1.347 2.207,-2.868 3.18,-4.564c0.972,-1.695 1.82,-3.391 2.543,-5.087c0.723,-1.696 1.284,-3.317 1.683,-4.863c0.399,-1.546 0.599,-2.843 0.599,-3.89c0,-1.247 -0.262,-2.219 -0.786,-2.918c-0.523,-0.698 -1.359,-1.047 -2.506,-1.047c-1.247,0 -2.494,0.424 -3.74,1.272c-1.247,0.848 -2.444,1.945 -3.591,3.292c-1.148,1.346 -2.207,2.867 -3.18,4.563c-0.973,1.696 -1.82,3.392 -2.544,5.087c-0.723,1.696 -1.284,3.317 -1.683,4.863c-0.399,1.546 -0.598,2.843 -0.598,3.891c0,1.246 0.261,2.219 0.785,2.917c0.524,0.698 1.359,1.048 2.506,1.048Z" style="fill:#fff;fill-rule:nonzero;"/><path d="M763.596,201.046c2.544,-4.389 5.125,-8.753 7.743,-13.092c2.619,-4.339 5.225,-8.753 7.818,-13.242l8.529,-0.299l-9.875,13.915l0.149,0.15c1.896,-2.344 3.579,-4.227 5.05,-5.649c1.472,-1.421 2.756,-2.581 3.853,-3.478c1.097,-0.898 2.02,-1.584 2.768,-2.058c0.748,-0.474 1.297,-0.885 1.646,-1.234c0.549,-0.549 1.06,-0.985 1.534,-1.309c0.474,-0.325 1.035,-0.574 1.683,-0.749c0.648,-0.174 1.434,-0.286 2.357,-0.336c0.922,-0.05 2.082,-0.1 3.479,-0.15c-0.948,1.347 -1.821,2.756 -2.619,4.227c-0.798,1.471 -1.197,3.055 -1.197,4.751c0,2.144 1.072,3.217 3.217,3.217c0.698,0 1.384,-0.15 2.057,-0.449c0.674,-0.299 1.31,-0.674 1.908,-1.122c0.599,-0.449 1.172,-0.936 1.721,-1.459c0.548,-0.524 1.047,-1.01 1.496,-1.459l0.299,0.374c-1.396,1.746 -3.042,3.167 -4.937,4.264c-1.896,1.098 -3.965,1.646 -6.21,1.646c-1.995,0 -3.566,-0.523 -4.713,-1.571c-1.147,-1.047 -1.721,-2.593 -1.721,-4.638c0,-1.297 0.374,-2.519 1.122,-3.666l-0.149,-0.15c-2.095,1.397 -4.09,3.018 -5.985,4.863c-1.895,1.845 -3.654,3.791 -5.275,5.836c-1.62,2.044 -3.117,4.152 -4.488,6.321c-1.372,2.17 -2.606,4.277 -3.704,6.322l-7.556,0.224Z" style="fill:#fff;fill-rule:nonzero;"/><path d="M70.823,0l-70.823,105.566l70.823,0l0,-105.566Z" style="fill:#d9651e;"/><path d="M1138.23,361.912l70.823,-105.566l-70.823,0l0,105.566Z" style="fill:#d9651e;"/></g></svg>