<?xml version="1.0" encoding="UTF-8" standalone="no"?><!DOCTYPE svg PUBLIC "-//W3C//DTD SVG 1.1//EN" "http://www.w3.org/Graphics/SVG/1.1/DTD/svg11.dtd"><svg width="100%" height="100%" viewBox="0 0 1888 565" version="1.1" xmlns="http://www.w3.org/2000/svg" xmlns:xlink="http://www.w3.org/1999/xlink" xml:space="preserve" xmlns:serif="http://www.serif.com/" style="fill-rule:evenodd;clip-rule:evenodd;stroke-linejoin:round;stroke-miterlimit:1.41421;"><rect x="0" y="163.299" width="1887.5" height="237.645" style="fill:#b5965b;"/><path d="M755.199,228.414c-5.909,6.687 -11.566,13.511 -16.97,20.47c-5.405,6.959 -10.148,13.822 -14.23,20.587c-4.083,6.765 -7.348,13.277 -9.798,19.536c-2.449,6.26 -3.674,12.072 -3.674,17.438c0,2.021 0.35,3.46 1.05,4.315c0.7,0.856 1.633,1.283 2.799,1.283c2.255,0 5.21,-1.244 8.865,-3.732c3.654,-2.488 7.426,-5.715 11.313,-9.681c1.245,-1.322 2.547,-2.741 3.908,-4.257c1.361,-1.517 2.682,-3.033 3.965,-4.549c1.283,-1.516 2.45,-2.936 3.5,-4.257c1.049,-1.322 1.924,-2.411 2.624,-3.266l0.933,0.583c-1.788,2.333 -3.83,4.957 -6.123,7.873c-2.294,2.916 -5.307,6.24 -9.04,9.972c-3.966,3.966 -7.912,7.271 -11.839,9.915c-3.926,2.643 -7.873,3.965 -11.838,3.965c-1.944,0 -3.558,-0.311 -4.841,-0.933c-1.283,-0.622 -2.294,-1.458 -3.032,-2.507c-0.739,-1.05 -1.264,-2.236 -1.575,-3.558c-0.311,-1.322 -0.467,-2.721 -0.467,-4.199c0,-4.743 0.778,-9.311 2.333,-13.705c1.555,-4.393 3.383,-8.573 5.482,-12.538l-16.329,0c-3.188,3.732 -6.746,7.737 -10.672,12.013c-3.927,4.277 -8.146,8.223 -12.656,11.839c-4.51,3.616 -9.253,6.629 -14.229,9.039c-4.977,2.411 -10.148,3.616 -15.513,3.616c-2.333,0 -4.569,-0.272 -6.707,-0.816c-2.138,-0.545 -4.063,-1.38 -5.773,-2.508c-1.711,-1.127 -3.072,-2.547 -4.083,-4.257c-1.011,-1.711 -1.516,-3.771 -1.516,-6.182c0,-2.255 0.622,-4.316 1.866,-6.182c1.244,-1.866 3.11,-2.799 5.599,-2.799c1.555,0 2.877,0.486 3.965,1.458c1.089,0.972 1.633,2.158 1.633,3.557c0,2.1 -0.622,3.616 -1.866,4.549c-1.244,0.933 -2.877,1.4 -4.899,1.4c0,1.633 0.389,3.11 1.167,4.432c0.777,1.322 1.749,2.411 2.916,3.266c1.166,0.855 2.488,1.516 3.965,1.983c1.478,0.466 2.916,0.7 4.316,0.7c3.499,0 6.94,-0.603 10.322,-1.808c3.383,-1.206 6.707,-2.819 9.973,-4.841c3.266,-2.021 6.415,-4.354 9.448,-6.998c3.032,-2.644 5.948,-5.365 8.747,-8.165c2.8,-2.799 5.443,-5.618 7.932,-8.456c2.488,-2.838 4.782,-5.424 6.881,-7.756c4.277,-4.821 8.729,-9.584 13.355,-14.288c4.627,-4.705 9.468,-9.137 14.522,-13.297c5.054,-4.16 10.361,-7.893 15.921,-11.197c5.56,-3.305 11.411,-5.891 17.554,-7.757l0.816,0.7Zm-45.955,47.355c4.355,-7.698 9.292,-15.007 14.813,-21.928c5.521,-6.92 11.547,-13.413 18.079,-19.478l-0.233,-0.234c-9.176,4.821 -17.632,10.809 -25.369,17.963c-7.737,7.153 -15.416,15.046 -23.036,23.677l15.746,0Z" style="fill:#fff;fill-rule:nonzero;"/><path d="M779.227,291.748c1.477,-1.866 3.227,-4.024 5.248,-6.473c2.022,-2.449 4.219,-4.763 6.59,-6.94c2.372,-2.177 4.86,-4.024 7.465,-5.54c2.605,-1.517 5.191,-2.275 7.757,-2.275c2.488,0 4.49,0.778 6.006,2.333c1.517,1.555 2.275,3.344 2.275,5.365c0,2.644 -0.855,5.346 -2.566,8.107c-1.711,2.76 -3.616,5.501 -5.715,8.223c-2.1,2.721 -4.005,5.365 -5.716,7.931c-1.71,2.566 -2.566,4.899 -2.566,6.998c0,0.856 0.195,1.575 0.584,2.158c0.388,0.583 1.01,0.875 1.866,0.875c3.188,0 8.398,-3.616 15.629,-10.847c2.955,-2.955 5.852,-6.085 8.69,-9.39c2.838,-3.305 5.307,-6.318 7.406,-9.039l0.933,0.466c-0.933,1.167 -2.002,2.489 -3.207,3.966c-1.205,1.477 -2.508,3.052 -3.908,4.724c-1.399,1.672 -2.896,3.402 -4.49,5.19c-1.594,1.789 -3.208,3.499 -4.841,5.132c-2.177,2.178 -4.16,4.024 -5.948,5.541c-1.789,1.516 -3.441,2.741 -4.957,3.674c-1.517,0.933 -2.955,1.613 -4.316,2.041c-1.361,0.428 -2.741,0.641 -4.14,0.641c-2.722,0 -4.841,-0.758 -6.357,-2.274c-1.517,-1.516 -2.275,-3.441 -2.275,-5.774c0,-2.488 0.856,-5.171 2.566,-8.048c1.711,-2.877 3.616,-5.676 5.716,-8.398c2.099,-2.721 4.004,-5.268 5.715,-7.639c1.711,-2.372 2.566,-4.296 2.566,-5.774c0,-1.089 -0.311,-1.924 -0.933,-2.508c-0.622,-0.583 -1.361,-0.874 -2.216,-0.874c-1.633,0 -3.519,0.758 -5.657,2.274c-2.139,1.516 -4.374,3.48 -6.707,5.89c-2.333,2.411 -4.646,5.093 -6.94,8.048c-2.294,2.955 -4.471,5.91 -6.532,8.865c-2.06,2.955 -3.888,5.715 -5.482,8.281c-1.594,2.566 -2.857,4.665 -3.79,6.298l-12.364,0.467c2.644,-4.199 5.229,-8.184 7.757,-11.955c2.527,-3.772 4.782,-7.232 6.765,-10.381c1.982,-3.149 3.576,-5.929 4.782,-8.34c1.205,-2.41 1.808,-4.315 1.808,-5.715c0,-0.933 -0.273,-1.788 -0.817,-2.566c-0.544,-0.778 -1.4,-1.166 -2.566,-1.166c-1.633,0 -3.519,0.758 -5.657,2.274c-2.138,1.516 -4.374,3.48 -6.707,5.89c-2.332,2.411 -4.684,5.093 -7.056,8.048c-2.372,2.955 -4.607,5.91 -6.707,8.865c-2.099,2.955 -3.965,5.715 -5.598,8.281c-1.633,2.566 -2.916,4.665 -3.849,6.298l-11.781,0.467c4.277,-6.843 8.515,-13.666 12.714,-20.47c4.199,-6.804 8.32,-13.744 12.363,-20.82l13.647,-0.7l-15.513,21.228l0.233,0.234c1.633,-1.866 3.48,-4.083 5.541,-6.649c2.06,-2.566 4.296,-5.015 6.706,-7.348c2.411,-2.333 4.996,-4.315 7.757,-5.948c2.76,-1.633 5.695,-2.45 8.806,-2.45c2.177,0 4.024,0.583 5.54,1.75c1.516,1.166 2.275,2.916 2.275,5.249c0,1.088 -0.195,2.255 -0.584,3.499c-0.388,1.244 -0.874,2.469 -1.458,3.674c-0.583,1.205 -1.244,2.41 -1.982,3.616c-0.739,1.205 -1.42,2.274 -2.042,3.207l0.234,0.233Z" style="fill:#fff;fill-rule:nonzero;"/><path d="M872.887,232.263c-5.599,8.554 -10.634,16.154 -15.105,22.803c-4.471,6.648 -8.417,12.48 -11.839,17.495c-3.421,5.016 -6.337,9.37 -8.747,13.064c-2.411,3.693 -4.374,6.92 -5.891,9.681c-1.516,2.76 -2.624,5.151 -3.324,7.173c-0.7,2.022 -1.049,3.888 -1.049,5.599c0,1.555 0.427,2.916 1.283,4.082c0.855,1.166 2.099,1.75 3.732,1.75c2.099,0 4.179,-0.623 6.24,-1.867c2.061,-1.244 4.024,-2.857 5.89,-4.84c1.866,-1.983 3.597,-4.18 5.191,-6.59c1.594,-2.411 2.974,-4.802 4.14,-7.173c1.167,-2.372 2.08,-4.588 2.741,-6.649c0.661,-2.06 0.992,-3.674 0.992,-4.84c0,-0.389 -0.059,-0.719 -0.175,-0.992c-0.117,-0.272 -0.253,-0.583 -0.409,-0.933c-0.155,-0.35 -0.291,-0.797 -0.408,-1.341c-0.116,-0.544 -0.175,-1.283 -0.175,-2.216c0,-1.478 0.486,-2.838 1.458,-4.083c0.972,-1.244 2.236,-1.866 3.791,-1.866c1.322,0 2.411,0.292 3.266,0.875c0.855,0.583 1.536,1.341 2.041,2.275c0.505,0.933 0.855,1.963 1.05,3.09c0.194,1.128 0.291,2.236 0.291,3.325c0,1.71 -0.233,3.576 -0.699,5.598c0.933,0.933 2.216,1.808 3.849,2.625c1.632,0.816 3.343,1.224 5.132,1.224c2.643,0 4.996,-0.622 7.056,-1.866c2.061,-1.244 3.869,-2.877 5.424,-4.899l0.816,0.7c-1.555,2.255 -3.518,4.063 -5.89,5.424c-2.372,1.361 -4.84,2.041 -7.406,2.041c-1.867,0 -3.558,-0.35 -5.074,-1.05c-1.516,-0.7 -2.935,-1.594 -4.257,-2.683c-1.167,4.044 -2.916,7.776 -5.249,11.198c-2.333,3.421 -5.074,6.376 -8.223,8.864c-3.149,2.488 -6.629,4.452 -10.439,5.89c-3.81,1.439 -7.776,2.158 -11.897,2.158c-4.355,0 -7.601,-1.127 -9.739,-3.382c-2.139,-2.255 -3.208,-5.288 -3.208,-9.098c0,-1.244 0.214,-2.605 0.642,-4.082c0.427,-1.478 1.205,-3.305 2.332,-5.482c1.128,-2.178 2.664,-4.88 4.607,-8.107c1.944,-3.227 4.452,-7.212 7.524,-11.955c3.071,-4.743 6.784,-10.42 11.139,-17.029c4.354,-6.61 9.486,-14.385 15.396,-23.328l13.18,-0.583Z" style="fill:#fff;fill-rule:nonzero;"/><path d="M921.991,273.086l12.131,-0.7c-0.7,1.4 -1.711,3.091 -3.033,5.074c-1.322,1.983 -2.76,4.121 -4.316,6.415c-1.555,2.294 -3.129,4.666 -4.723,7.115c-1.594,2.45 -3.052,4.821 -4.374,7.115c-1.322,2.294 -2.391,4.432 -3.208,6.415c-0.816,1.983 -1.225,3.674 -1.225,5.074c0,1.944 0.972,2.916 2.916,2.916c1.867,0 4.394,-1.089 7.582,-3.266c3.188,-2.177 6.532,-5.054 10.031,-8.631c1.477,-1.478 2.974,-3.072 4.49,-4.782c1.517,-1.711 2.974,-3.402 4.374,-5.074c1.4,-1.672 2.683,-3.227 3.849,-4.666c1.167,-1.438 2.1,-2.624 2.799,-3.557l0.817,0.467c-2.022,2.721 -4.355,5.734 -6.998,9.039c-2.644,3.305 -5.832,6.823 -9.565,10.556c-3.732,3.732 -7.406,6.784 -11.022,9.156c-3.616,2.371 -7.212,3.557 -10.789,3.557c-2.488,0 -4.413,-0.641 -5.773,-1.924c-1.361,-1.283 -2.042,-2.858 -2.042,-4.724c0,-0.622 0.039,-1.205 0.117,-1.75c0.078,-0.544 0.194,-0.972 0.35,-1.283l-0.233,0c-2.411,2.722 -5.132,5.016 -8.165,6.882c-3.033,1.866 -6.298,2.799 -9.798,2.799c-1.866,0 -3.46,-0.35 -4.782,-1.05c-1.322,-0.699 -2.391,-1.652 -3.207,-2.857c-0.817,-1.205 -1.419,-2.566 -1.808,-4.083c-0.389,-1.516 -0.583,-3.09 -0.583,-4.723c0,-3.81 1.049,-7.621 3.149,-11.431c2.099,-3.81 4.743,-7.251 7.931,-10.322c3.188,-3.072 6.746,-5.56 10.673,-7.465c3.926,-1.905 7.678,-2.858 11.255,-2.858c2.722,0 4.86,0.583 6.415,1.75c1.555,1.166 2.838,2.994 3.849,5.482l2.916,-4.666Zm-34.991,29.86c0,2.255 0.369,4.218 1.108,5.89c0.739,1.672 2.313,2.507 4.724,2.507c1.633,-0.077 3.343,-0.758 5.132,-2.041c1.788,-1.283 3.518,-2.896 5.19,-4.84c1.672,-1.944 3.266,-4.102 4.782,-6.474c1.517,-2.371 2.839,-4.762 3.966,-7.173c1.128,-2.41 2.022,-4.685 2.683,-6.823c0.661,-2.138 0.991,-3.946 0.991,-5.424c0,-2.099 -0.389,-3.732 -1.166,-4.898c-0.778,-1.167 -2.294,-1.75 -4.549,-1.75c-1.789,0 -3.596,0.544 -5.424,1.633c-1.827,1.088 -3.577,2.527 -5.248,4.315c-1.672,1.789 -3.266,3.791 -4.783,6.007c-1.516,2.216 -2.818,4.491 -3.907,6.824c-1.089,2.332 -1.944,4.568 -2.566,6.706c-0.622,2.139 -0.933,3.985 -0.933,5.541Z" style="fill:#fff;fill-rule:nonzero;"/><path d="M955.583,313.093c3.966,-0.855 7.64,-2.313 11.022,-4.374c3.383,-2.06 6.551,-4.471 9.506,-7.231c2.955,-2.761 5.735,-5.755 8.34,-8.981c2.605,-3.227 5.151,-6.474 7.64,-9.74l0.933,0.7c-3.111,4.044 -6.221,7.99 -9.331,11.839c-3.111,3.849 -6.513,7.251 -10.206,10.206c-3.694,2.954 -7.737,5.326 -12.131,7.115c-4.393,1.788 -9.428,2.682 -15.104,2.682c-2.022,0 -4.024,-0.214 -6.007,-0.641c-1.983,-0.428 -3.771,-1.128 -5.365,-2.1c-1.594,-0.972 -2.877,-2.255 -3.849,-3.849c-0.972,-1.594 -1.458,-3.557 -1.458,-5.89c0,-1.244 0.175,-2.488 0.525,-3.732c0.349,-1.245 0.874,-2.372 1.574,-3.383c0.7,-1.011 1.575,-1.847 2.625,-2.508c1.049,-0.661 2.274,-0.991 3.674,-0.991c1.788,0 3.168,0.505 4.14,1.516c0.972,1.011 1.458,2.177 1.458,3.499c0,1.633 -0.466,2.877 -1.399,3.733c-0.934,0.855 -2.022,1.283 -3.266,1.283c-1.011,0 -1.866,-0.195 -2.566,-0.583c-0.389,0.699 -0.72,1.458 -0.992,2.274c-0.272,0.816 -0.408,1.652 -0.408,2.508c0,2.177 0.836,3.965 2.508,5.365c1.672,1.4 3.635,2.1 5.89,2.1c1.4,0 2.819,-0.234 4.257,-0.7c1.439,-0.467 2.722,-1.147 3.849,-2.041c1.128,-0.895 2.041,-1.964 2.741,-3.208c0.7,-1.244 1.05,-2.605 1.05,-4.082c0,-2.022 -0.486,-3.869 -1.458,-5.541c-0.972,-1.671 -2.041,-3.285 -3.208,-4.84c-1.166,-1.555 -2.235,-3.13 -3.207,-4.724c-0.972,-1.594 -1.458,-3.285 -1.458,-5.074c0,-2.177 0.505,-4.082 1.516,-5.715c1.011,-1.633 2.333,-3.013 3.966,-4.141c1.633,-1.127 3.46,-1.963 5.482,-2.507c2.022,-0.545 4.082,-0.817 6.182,-0.817c3.732,0 6.862,0.797 9.389,2.391c2.527,1.594 3.791,3.869 3.791,6.824c0,2.255 -0.739,4.101 -2.216,5.54c-1.478,1.438 -3.344,2.158 -5.599,2.158c-0.7,0 -1.341,-0.059 -1.924,-0.175c-0.584,-0.117 -1.07,-0.253 -1.458,-0.408c0.855,-1.556 1.458,-3.091 1.807,-4.608c0.35,-1.516 0.525,-3.013 0.525,-4.49c0,-1.555 -0.447,-2.916 -1.341,-4.082c-0.894,-1.167 -2.236,-1.75 -4.024,-1.75c-2.177,0 -3.849,0.68 -5.015,2.041c-1.167,1.361 -1.75,3.052 -1.75,5.074c0,2.177 0.486,4.102 1.458,5.773c0.972,1.672 2.041,3.286 3.208,4.841c1.166,1.555 2.235,3.188 3.207,4.899c0.972,1.71 1.458,3.732 1.458,6.065c0,1.477 -0.253,2.916 -0.758,4.315c-0.506,1.4 -1.186,2.644 -2.041,3.733c-0.856,1.088 -1.808,2.002 -2.858,2.741c-1.05,0.739 -2.158,1.225 -3.324,1.458l0,0.233Z" style="fill:#fff;fill-rule:nonzero;"/><path d="M998.739,313.093c3.966,-0.855 7.64,-2.313 11.022,-4.374c3.383,-2.06 6.551,-4.471 9.506,-7.231c2.955,-2.761 5.735,-5.755 8.34,-8.981c2.605,-3.227 5.151,-6.474 7.639,-9.74l0.934,0.7c-3.111,4.044 -6.221,7.99 -9.331,11.839c-3.111,3.849 -6.513,7.251 -10.206,10.206c-3.694,2.954 -7.737,5.326 -12.131,7.115c-4.393,1.788 -9.428,2.682 -15.104,2.682c-2.022,0 -4.024,-0.214 -6.007,-0.641c-1.983,-0.428 -3.771,-1.128 -5.365,-2.1c-1.594,-0.972 -2.877,-2.255 -3.849,-3.849c-0.972,-1.594 -1.458,-3.557 -1.458,-5.89c0,-1.244 0.175,-2.488 0.525,-3.732c0.349,-1.245 0.874,-2.372 1.574,-3.383c0.7,-1.011 1.575,-1.847 2.624,-2.508c1.05,-0.661 2.275,-0.991 3.675,-0.991c1.788,0 3.168,0.505 4.14,1.516c0.972,1.011 1.458,2.177 1.458,3.499c0,1.633 -0.466,2.877 -1.399,3.733c-0.934,0.855 -2.022,1.283 -3.266,1.283c-1.011,0 -1.867,-0.195 -2.566,-0.583c-0.389,0.699 -0.72,1.458 -0.992,2.274c-0.272,0.816 -0.408,1.652 -0.408,2.508c0,2.177 0.836,3.965 2.508,5.365c1.672,1.4 3.635,2.1 5.89,2.1c1.4,0 2.819,-0.234 4.257,-0.7c1.439,-0.467 2.722,-1.147 3.849,-2.041c1.128,-0.895 2.041,-1.964 2.741,-3.208c0.7,-1.244 1.05,-2.605 1.05,-4.082c0,-2.022 -0.486,-3.869 -1.458,-5.541c-0.972,-1.671 -2.041,-3.285 -3.208,-4.84c-1.166,-1.555 -2.235,-3.13 -3.207,-4.724c-0.972,-1.594 -1.458,-3.285 -1.458,-5.074c0,-2.177 0.505,-4.082 1.516,-5.715c1.011,-1.633 2.333,-3.013 3.966,-4.141c1.633,-1.127 3.46,-1.963 5.482,-2.507c2.022,-0.545 4.082,-0.817 6.182,-0.817c3.732,0 6.862,0.797 9.389,2.391c2.527,1.594 3.791,3.869 3.791,6.824c0,2.255 -0.739,4.101 -2.216,5.54c-1.478,1.438 -3.344,2.158 -5.599,2.158c-0.7,0 -1.341,-0.059 -1.925,-0.175c-0.583,-0.117 -1.069,-0.253 -1.457,-0.408c0.855,-1.556 1.457,-3.091 1.807,-4.608c0.35,-1.516 0.525,-3.013 0.525,-4.49c0,-1.555 -0.447,-2.916 -1.341,-4.082c-0.894,-1.167 -2.236,-1.75 -4.024,-1.75c-2.177,0 -3.849,0.68 -5.015,2.041c-1.167,1.361 -1.75,3.052 -1.75,5.074c0,2.177 0.486,4.102 1.458,5.773c0.972,1.672 2.041,3.286 3.207,4.841c1.167,1.555 2.236,3.188 3.208,4.899c0.972,1.71 1.458,3.732 1.458,6.065c0,1.477 -0.253,2.916 -0.758,4.315c-0.506,1.4 -1.186,2.644 -2.041,3.733c-0.856,1.088 -1.808,2.002 -2.858,2.741c-1.05,0.739 -2.158,1.225 -3.324,1.458l0,0.233Z" style="fill:#fff;fill-rule:nonzero;"/><path d="M1068.84,273.086l12.13,-0.7c-0.699,1.4 -1.71,3.091 -3.032,5.074c-1.322,1.983 -2.761,4.121 -4.316,6.415c-1.555,2.294 -3.129,4.666 -4.724,7.115c-1.594,2.45 -3.052,4.821 -4.373,7.115c-1.322,2.294 -2.392,4.432 -3.208,6.415c-0.816,1.983 -1.225,3.674 -1.225,5.074c0,1.944 0.972,2.916 2.916,2.916c1.866,0 4.394,-1.089 7.582,-3.266c3.188,-2.177 6.531,-5.054 10.031,-8.631c1.477,-1.478 2.974,-3.072 4.49,-4.782c1.516,-1.711 2.974,-3.402 4.374,-5.074c1.4,-1.672 2.683,-3.227 3.849,-4.666c1.166,-1.438 2.1,-2.624 2.799,-3.557l0.817,0.467c-2.022,2.721 -4.355,5.734 -6.998,9.039c-2.644,3.305 -5.832,6.823 -9.565,10.556c-3.732,3.732 -7.406,6.784 -11.022,9.156c-3.616,2.371 -7.212,3.557 -10.789,3.557c-2.488,0 -4.413,-0.641 -5.774,-1.924c-1.36,-1.283 -2.041,-2.858 -2.041,-4.724c0,-0.622 0.039,-1.205 0.117,-1.75c0.078,-0.544 0.194,-0.972 0.35,-1.283l-0.233,0c-2.411,2.722 -5.132,5.016 -8.165,6.882c-3.033,1.866 -6.299,2.799 -9.798,2.799c-1.866,0 -3.46,-0.35 -4.782,-1.05c-1.322,-0.699 -2.391,-1.652 -3.207,-2.857c-0.817,-1.205 -1.419,-2.566 -1.808,-4.083c-0.389,-1.516 -0.583,-3.09 -0.583,-4.723c0,-3.81 1.049,-7.621 3.149,-11.431c2.099,-3.81 4.743,-7.251 7.931,-10.322c3.188,-3.072 6.746,-5.56 10.673,-7.465c3.926,-1.905 7.678,-2.858 11.255,-2.858c2.722,0 4.86,0.583 6.415,1.75c1.555,1.166 2.838,2.994 3.849,5.482l2.916,-4.666Zm-34.991,29.86c0,2.255 0.369,4.218 1.108,5.89c0.739,1.672 2.313,2.507 4.724,2.507c1.633,-0.077 3.343,-0.758 5.132,-2.041c1.788,-1.283 3.518,-2.896 5.19,-4.84c1.672,-1.944 3.266,-4.102 4.782,-6.474c1.517,-2.371 2.838,-4.762 3.966,-7.173c1.127,-2.41 2.022,-4.685 2.683,-6.823c0.661,-2.138 0.991,-3.946 0.991,-5.424c0,-2.099 -0.389,-3.732 -1.166,-4.898c-0.778,-1.167 -2.294,-1.75 -4.549,-1.75c-1.789,0 -3.597,0.544 -5.424,1.633c-1.827,1.088 -3.577,2.527 -5.249,4.315c-1.671,1.789 -3.265,3.791 -4.782,6.007c-1.516,2.216 -2.818,4.491 -3.907,6.824c-1.089,2.332 -1.944,4.568 -2.566,6.706c-0.622,2.139 -0.933,3.985 -0.933,5.541Z" style="fill:#fff;fill-rule:nonzero;"/><path d="M1154.33,232.963l13.063,-0.7c-2.566,4.199 -5.501,8.845 -8.806,13.938c-3.305,5.094 -6.687,10.284 -10.148,15.571c-3.46,5.288 -6.862,10.517 -10.205,15.688c-3.344,5.171 -6.318,9.953 -8.923,14.347c-2.605,4.393 -4.705,8.223 -6.299,11.488c-1.594,3.266 -2.391,5.638 -2.391,7.115c0,0.856 0.195,1.536 0.583,2.042c0.389,0.505 1.011,0.758 1.867,0.758c1.633,0 3.868,-0.817 6.706,-2.45c2.839,-1.633 6.007,-4.276 9.506,-7.931c2.877,-2.955 5.638,-6.007 8.282,-9.156c2.643,-3.149 5.52,-6.785 8.631,-10.906l1.166,0.583c-0.855,1.167 -1.885,2.528 -3.091,4.083c-1.205,1.555 -2.507,3.188 -3.907,4.899c-1.4,1.71 -2.858,3.44 -4.374,5.19c-1.516,1.749 -3.013,3.402 -4.491,4.957c-3.732,3.888 -7.309,6.998 -10.73,9.331c-3.422,2.333 -7.076,3.499 -10.964,3.499c-1.789,0 -3.247,-0.291 -4.374,-0.875c-1.128,-0.583 -2.022,-1.341 -2.683,-2.274c-0.661,-0.933 -1.069,-1.944 -1.224,-3.033c-0.156,-1.088 -0.117,-2.138 0.116,-3.149l-0.233,-0.233c-2.411,2.488 -5.054,4.588 -7.931,6.298c-2.878,1.711 -6.182,2.566 -9.915,2.566c-1.866,0 -3.44,-0.33 -4.723,-0.991c-1.284,-0.661 -2.333,-1.555 -3.15,-2.683c-0.816,-1.127 -1.399,-2.41 -1.749,-3.849c-0.35,-1.438 -0.525,-2.935 -0.525,-4.49c0,-3.888 1.011,-7.757 3.032,-11.606c2.022,-3.849 4.627,-7.29 7.815,-10.322c3.188,-3.033 6.726,-5.482 10.614,-7.348c3.888,-1.867 7.737,-2.8 11.547,-2.8c5.21,0 8.709,2.489 10.498,7.465l27.41,-45.022Zm-54.004,77.681c2.489,0 5.074,-1.186 7.757,-3.558c2.682,-2.371 5.132,-5.248 7.348,-8.631c2.216,-3.382 4.024,-6.901 5.424,-10.556c1.399,-3.654 2.099,-6.804 2.099,-9.447c0,-2.255 -0.583,-3.908 -1.75,-4.957c-1.166,-1.05 -2.643,-1.575 -4.432,-1.575c-2.41,0 -4.918,1.108 -7.523,3.324c-2.605,2.216 -4.996,4.918 -7.173,8.106c-2.177,3.189 -3.966,6.61 -5.365,10.265c-1.4,3.654 -2.1,6.92 -2.1,9.797c0,1.866 0.428,3.538 1.283,5.016c0.855,1.477 2.333,2.216 4.432,2.216Z" style="fill:#fff;fill-rule:nonzero;"/><path d="M1213.59,283.234c-1.556,2.022 -3.402,3.849 -5.541,5.482c-2.138,1.633 -4.49,2.449 -7.056,2.449c-1.789,0 -3.344,-0.389 -4.666,-1.166c-1.322,-0.778 -2.527,-1.866 -3.616,-3.266c-0.933,3.888 -2.468,7.562 -4.607,11.022c-2.138,3.46 -4.724,6.493 -7.756,9.098c-3.033,2.605 -6.415,4.665 -10.148,6.182c-3.732,1.516 -7.62,2.274 -11.663,2.274c-4.277,0 -7.699,-1.225 -10.265,-3.674c-2.566,-2.449 -3.849,-5.812 -3.849,-10.089c0,-4.121 1.05,-8.068 3.15,-11.839c2.099,-3.771 4.821,-7.076 8.164,-9.914c3.344,-2.838 7.037,-5.093 11.081,-6.765c4.043,-1.672 8.009,-2.508 11.897,-2.508c4.199,0 7.504,1.128 9.914,3.383c2.411,2.255 3.888,4.976 4.432,8.164c0.389,2.333 1.264,4.199 2.625,5.599c1.36,1.4 3.129,2.1 5.307,2.1c2.099,0 4.082,-0.623 5.948,-1.867c1.866,-1.244 3.849,-3.11 5.949,-5.598l0.7,0.933Zm-54.237,30.676c1.944,0 3.888,-0.661 5.832,-1.983c1.944,-1.322 3.81,-3.033 5.599,-5.132c1.788,-2.1 3.44,-4.471 4.957,-7.115c1.516,-2.644 2.838,-5.288 3.965,-7.932c1.128,-2.643 2.003,-5.171 2.625,-7.581c0.622,-2.411 0.933,-4.432 0.933,-6.065c0,-1.944 -0.408,-3.461 -1.225,-4.549c-0.816,-1.089 -2.119,-1.633 -3.907,-1.633c-1.944,0 -3.888,0.661 -5.832,1.983c-1.944,1.322 -3.81,3.032 -5.599,5.132c-1.788,2.099 -3.441,4.471 -4.957,7.115c-1.516,2.644 -2.838,5.287 -3.966,7.931c-1.127,2.644 -2.002,5.171 -2.624,7.582c-0.622,2.41 -0.933,4.432 -0.933,6.065c0,1.944 0.408,3.46 1.225,4.549c0.816,1.088 2.119,1.633 3.907,1.633Z" style="fill:#fff;fill-rule:nonzero;"/><path d="M1190.49,313.443c3.966,-6.843 7.99,-13.647 12.072,-20.412c4.083,-6.765 8.145,-13.646 12.189,-20.645l13.297,-0.466l-15.397,21.695l0.234,0.233c2.955,-3.655 5.579,-6.59 7.873,-8.806c2.294,-2.216 4.296,-4.024 6.007,-5.424c1.71,-1.4 3.149,-2.469 4.315,-3.208c1.167,-0.738 2.022,-1.38 2.566,-1.924c0.856,-0.855 1.653,-1.536 2.391,-2.041c0.739,-0.506 1.614,-0.894 2.625,-1.167c1.011,-0.272 2.235,-0.447 3.674,-0.524c1.438,-0.078 3.246,-0.156 5.423,-0.234c-1.477,2.1 -2.838,4.296 -4.082,6.59c-1.244,2.294 -1.866,4.763 -1.866,7.407c0,3.343 1.672,5.015 5.015,5.015c1.089,0 2.158,-0.233 3.208,-0.7c1.05,-0.466 2.041,-1.049 2.974,-1.749c0.933,-0.7 1.827,-1.458 2.683,-2.275c0.855,-0.816 1.633,-1.574 2.333,-2.274l0.466,0.583c-2.177,2.722 -4.743,4.938 -7.698,6.649c-2.955,1.71 -6.182,2.566 -9.681,2.566c-3.11,0 -5.56,-0.817 -7.348,-2.45c-1.789,-1.633 -2.683,-4.043 -2.683,-7.231c0,-2.022 0.583,-3.927 1.75,-5.716l-0.233,-0.233c-3.266,2.177 -6.377,4.704 -9.332,7.582c-2.954,2.877 -5.695,5.909 -8.222,9.097c-2.528,3.188 -4.86,6.474 -6.999,9.856c-2.138,3.383 -4.063,6.668 -5.773,9.856l-11.781,0.35Z" style="fill:#fff;fill-rule:nonzero;"/><path d="M110.417,0l-110.417,164.583l110.417,0l0,-164.583Z" style="fill:#d9651e;"/><path d="M1774.56,564.242l110.417,-164.583l-110.417,0l0,164.583Z" style="fill:#d9651e;"/></svg>