<?xml version="1.0" encoding="UTF-8" standalone="no"?><!DOCTYPE svg PUBLIC "-//W3C//DTD SVG 1.1//EN" "http://www.w3.org/Graphics/SVG/1.1/DTD/svg11.dtd"><svg width="100%" height="100%" viewBox="0 0 2134 2134" version="1.1" xmlns="http://www.w3.org/2000/svg" xmlns:xlink="http://www.w3.org/1999/xlink" xml:space="preserve" xmlns:serif="http://www.serif.com/" style="fill-rule:evenodd;clip-rule:evenodd;stroke-linejoin:round;stroke-miterlimit:1.41421;"><path d="M2029.7,1019.31l97.292,-138.655c7.49,-10.669 8.412,-24.615 2.397,-36.185c-6.009,-11.564 -17.964,-18.816 -30.994,-18.816l-292.612,0c-19.291,0 -34.934,15.643 -34.934,34.934l0,55.141l-1408.37,0l0,-55.141c0,-19.291 -15.644,-34.934 -34.935,-34.934l-292.611,0c-13.031,0 -24.986,7.259 -30.994,18.816c-6.016,11.563 -5.094,25.509 2.396,36.185l97.293,138.655l-97.293,138.655c-7.49,10.669 -8.412,24.615 -2.396,36.185c6.008,11.564 17.963,18.816 30.994,18.816l257.677,0l0,59.773c0,19.291 15.643,34.935 34.934,34.935l1478.24,0c19.291,0 34.935,-15.644 34.935,-34.935l0,-59.773l257.677,0c13.03,0 24.985,-7.259 30.994,-18.816c6.015,-11.563 5.093,-25.509 -2.397,-36.185l-97.292,-138.655Zm-1927.58,123.787l72.775,-103.721c8.447,-12.045 8.447,-28.094 0,-40.132l-72.782,-103.721l190.491,0l0,247.574l-190.484,0Zm1668.73,94.707l-1408.37,0l0,-59.773l0,-108.011l0,-84.422l1408.37,0l0,252.206Zm69.869,-94.707l0,-192.433l0,-55.141l190.491,0l-72.783,103.721c-8.447,12.045 -8.447,28.094 0,40.132l72.776,103.721l-190.484,0Z" style="fill:#9e0976;fill-rule:nonzero;"/></svg>